<?xml version="1.0" encoding="utf-8"?>
<!-- Generator: Adobe Illustrator 15.0.2, SVG Export Plug-In . SVG Version: 6.00 Build 0)  -->
<!DOCTYPE svg PUBLIC "-//W3C//DTD SVG 1.1//EN" "http://www.w3.org/Graphics/SVG/1.1/DTD/svg11.dtd">
<svg version="1.1" id="Ebene_1" xmlns="http://www.w3.org/2000/svg" xmlns:xlink="http://www.w3.org/1999/xlink" x="0px" y="0px"
	 width="200px" height="55px" viewBox="224 309 200 55" enable-background="new 224 309 200 55" xml:space="preserve">
<g>
	<path fill="#FF7300" d="M235.594,345.367h-6.412c-0.432,0-0.744-0.119-0.938-0.359c-0.193-0.238-0.289-0.525-0.289-0.861v-20.432
		c0-0.334,0.121-0.621,0.359-0.861c0.24-0.24,0.529-0.359,0.865-0.359h6.412v3.668h-3.889v15.537h3.889L235.594,345.367
		L235.594,345.367z M236.518,339.117h10.312v-10.312h-10.312V339.117z M247.756,345.367h6.412c0.432,0,0.744-0.119,0.938-0.359
		c0.193-0.238,0.289-0.525,0.289-0.861v-20.432c0-0.334-0.119-0.621-0.359-0.861s-0.529-0.359-0.865-0.359h-6.412v3.668h3.889
		v15.537h-3.889L247.756,345.367L247.756,345.367z"/>
	<path fill="#FF7300" d="M281.811,338.965c0,1.057-0.121,1.906-0.359,2.555c-0.24,0.648-0.723,1.33-1.441,2.049
		c-1.201,1.199-2.762,1.799-4.684,1.799h-8.432c-0.385,0-0.744-0.168-1.08-0.504s-0.504-0.693-0.504-1.08v-31.041h3.75v9.75h6.268
		c1.008,0,1.85,0.121,2.521,0.361c0.672,0.238,1.367,0.719,2.088,1.438c1.248,1.246,1.873,2.779,1.873,4.604V338.965
		L281.811,338.965z M278.061,338.523v-9.113c0-0.957-0.312-1.734-0.938-2.332s-1.393-0.896-2.305-0.896h-5.76v15.5h5.76
		c0.576,0,1.021-0.049,1.332-0.145c0.312-0.096,0.637-0.336,0.975-0.719C277.748,340.244,278.061,339.48,278.061,338.523z"/>
	<path fill="#FF7300" d="M286.205,312.805h3.75v3.744h-3.75V312.805z M289.955,345.367h-3.75v-22.896h3.75V345.367z"/>
	<path fill="#FF7300" d="M298.504,345.402c-0.385,0-0.746-0.168-1.082-0.504c-0.338-0.336-0.506-0.695-0.506-1.08V326.18h-3.312
		v-3.689h3.312v-9.688h3.75v9.688h4.104h2.16v3.689h-6.266v15.551h3.602v3.672h-3.674H298.504L298.504,345.402z"/>
	<path fill="#3B4144" d="M326.879,345.367h-0.504h-14.41c-0.48,0-0.865-0.145-1.154-0.432c-0.287-0.289-0.432-0.674-0.432-1.154
		v-29.318c0-0.576,0.145-0.998,0.432-1.262c0.289-0.264,0.674-0.396,1.154-0.396h14.914v3.688h-12.75v9.375h11.16v1.881v1.809
		h-11.16v12.125h12.75V345.367z"/>
	<path fill="#3B4144" d="M349.258,322.492l-7.775,11.438l7.633,11.438h-4.682l-5.471-8.344l-5.473,8.344h-4.535l7.631-11.438
		l-7.703-11.438h4.68l5.4,8.416l5.615-8.416H349.258z"/>
	<path fill="#3B4144" d="M366.832,330.688c-0.912,3.979-3.436,5.873-7.562,5.68h-3.311v9h-3.75v-21.723
		c0-0.336,0.105-0.611,0.324-0.828c0.217-0.215,0.469-0.324,0.758-0.324h5.908c2.496-0.047,4.475,0.758,5.938,2.41
		C366.602,326.555,367.168,328.482,366.832,330.688z M363.146,329.395c0-0.857-0.324-1.607-0.971-2.25s-1.641-0.965-2.982-0.965
		h-3.232v6.5h3.232c1.342,0,2.336-0.32,2.982-0.965C362.822,331.072,363.146,330.299,363.146,329.395z"/>
	<path fill="#3B4144" d="M381.896,345.367h-10.604c-0.338,0-0.604-0.096-0.793-0.287c-0.193-0.189-0.289-0.455-0.289-0.791v-20.646
		c0-0.385,0.096-0.672,0.289-0.863c0.189-0.189,0.455-0.287,0.793-0.287h10.604v3.688h-7.938v5.062h6.84v1.809v1.881h-6.84v6.75
		h7.938V345.367z"/>
	<path fill="#3B4144" d="M401.529,329.613c0,2.781-1.27,4.867-3.811,6.26l5.109,9.494h-3.889l-5.037-9h-3.311v9h-3.75v-21.725
		c0-0.336,0.107-0.611,0.324-0.826c0.215-0.217,0.467-0.324,0.756-0.324h5.902c2.496,0,4.402,0.721,5.725,2.158
		C400.869,326.09,401.529,327.744,401.529,329.613z M397.779,329.418c0-0.861-0.324-1.619-0.971-2.268
		c-0.646-0.646-1.641-0.973-2.982-0.973h-3.232v6.553h3.232c1.344,0,2.336-0.324,2.982-0.973S397.779,330.33,397.779,329.418z"/>
	<path fill="#3B4144" d="M419.812,326.18h-5.832v19.188h-3.75V326.18h-5.76v-3.688h15.342V326.18z"/>
	<g>
		<path fill="#333B3F" d="M232.705,358.23c0,0.215-0.049,0.428-0.148,0.637c-0.102,0.211-0.24,0.389-0.42,0.535
			c-0.199,0.158-0.428,0.281-0.691,0.371c-0.264,0.088-0.58,0.133-0.951,0.133c-0.396,0-0.754-0.037-1.072-0.111
			c-0.318-0.072-0.641-0.184-0.969-0.33v-0.918h0.053c0.277,0.23,0.602,0.41,0.967,0.537c0.365,0.125,0.709,0.188,1.029,0.188
			c0.455,0,0.809-0.084,1.062-0.254c0.254-0.172,0.379-0.398,0.379-0.684c0-0.244-0.061-0.426-0.18-0.541
			c-0.121-0.115-0.303-0.205-0.547-0.27c-0.186-0.049-0.387-0.09-0.602-0.123c-0.217-0.031-0.445-0.072-0.688-0.121
			c-0.49-0.105-0.854-0.281-1.088-0.533c-0.236-0.25-0.354-0.576-0.354-0.979c0-0.463,0.193-0.84,0.584-1.137
			c0.391-0.295,0.887-0.441,1.486-0.441c0.389,0,0.744,0.037,1.066,0.111c0.322,0.072,0.609,0.166,0.857,0.273v0.867h-0.051
			c-0.211-0.18-0.486-0.326-0.828-0.443s-0.691-0.176-1.051-0.176c-0.393,0-0.707,0.082-0.947,0.244
			c-0.238,0.164-0.357,0.373-0.357,0.631c0,0.229,0.061,0.41,0.18,0.541c0.117,0.131,0.326,0.23,0.625,0.299
			c0.158,0.035,0.383,0.078,0.674,0.127s0.539,0.102,0.742,0.152c0.41,0.107,0.719,0.271,0.926,0.492
			C232.602,357.527,232.705,357.834,232.705,358.23z"/>
		<path fill="#333B3F" d="M237.996,354.922c0.227,0.246,0.396,0.551,0.518,0.906c0.121,0.359,0.182,0.766,0.182,1.221
			c0,0.453-0.062,0.859-0.186,1.221c-0.121,0.359-0.293,0.66-0.514,0.898c-0.227,0.25-0.494,0.438-0.807,0.562
			c-0.309,0.125-0.662,0.188-1.061,0.188c-0.389,0-0.74-0.062-1.059-0.191c-0.318-0.127-0.588-0.314-0.811-0.561
			c-0.225-0.244-0.395-0.545-0.514-0.898c-0.119-0.357-0.18-0.764-0.18-1.221c0-0.449,0.059-0.854,0.178-1.209
			c0.119-0.357,0.291-0.664,0.52-0.918c0.217-0.24,0.486-0.428,0.811-0.557c0.322-0.127,0.674-0.191,1.055-0.191
			c0.395,0,0.75,0.064,1.064,0.193C237.51,354.498,237.777,354.684,237.996,354.922z M237.932,357.049
			c0-0.717-0.162-1.27-0.482-1.658s-0.76-0.582-1.314-0.582c-0.561,0-1,0.193-1.32,0.582s-0.479,0.941-0.479,1.658
			c0,0.725,0.162,1.277,0.488,1.662c0.324,0.383,0.764,0.574,1.312,0.574s0.984-0.191,1.311-0.574
			C237.768,358.326,237.932,357.771,237.932,357.049z"/>
		<path fill="#333B3F" d="M243.383,354.939h-2.791v1.557h2.396v0.652h-2.396v2.656h-0.734v-5.518h3.525V354.939z"/>
		<path fill="#333B3F" d="M248.262,354.939h-1.971v4.865h-0.734v-4.865h-1.971v-0.652h4.676V354.939L248.262,354.939z"/>
		<path fill="#333B3F" d="M255.424,354.289l-1.436,5.518h-0.826l-1.158-4.58l-1.135,4.58h-0.809l-1.461-5.518h0.752l1.16,4.586
			l1.143-4.586h0.744l1.152,4.631l1.152-4.631H255.424z"/>
		<path fill="#333B3F" d="M260.674,359.807h-0.783l-0.541-1.539h-2.385l-0.541,1.539h-0.746l2.008-5.518h0.98L260.674,359.807z
			 M259.125,357.639l-0.969-2.711l-0.971,2.711H259.125z"/>
		<path fill="#333B3F" d="M266.076,359.807h-0.953l-1.846-2.193h-1.033v2.193h-0.732v-5.518h1.545c0.332,0,0.611,0.021,0.834,0.062
			c0.223,0.043,0.422,0.121,0.6,0.232c0.201,0.125,0.355,0.283,0.471,0.477c0.113,0.191,0.168,0.434,0.168,0.729
			c0,0.396-0.102,0.729-0.301,0.998s-0.477,0.471-0.826,0.605L266.076,359.807z M264.359,355.84c0-0.156-0.027-0.297-0.082-0.42
			c-0.057-0.123-0.148-0.227-0.275-0.311c-0.107-0.07-0.232-0.121-0.379-0.148s-0.316-0.043-0.516-0.043h-0.863V357h0.742
			c0.23,0,0.436-0.02,0.607-0.061s0.318-0.117,0.439-0.229c0.111-0.104,0.193-0.225,0.246-0.357
			C264.334,356.219,264.359,356.047,264.359,355.84z"/>
		<path fill="#333B3F" d="M270.422,359.807h-3.635v-5.518h3.635v0.65h-2.9v1.512h2.9v0.652h-2.9v2.049h2.9V359.807z"/>
		<path fill="#333B3F" d="M278.914,357.053c0,0.5-0.109,0.955-0.328,1.363c-0.219,0.406-0.51,0.725-0.873,0.947
			c-0.252,0.156-0.533,0.27-0.844,0.338s-0.717,0.104-1.225,0.104h-1.393v-5.518h1.377c0.539,0,0.967,0.039,1.283,0.117
			s0.588,0.186,0.807,0.32c0.375,0.234,0.668,0.547,0.879,0.938C278.809,356.055,278.914,356.518,278.914,357.053z M278.146,357.041
			c0-0.434-0.074-0.799-0.227-1.094c-0.15-0.297-0.375-0.529-0.674-0.699c-0.217-0.125-0.447-0.211-0.693-0.258
			c-0.244-0.049-0.537-0.072-0.877-0.072h-0.689v4.258h0.689c0.354,0,0.66-0.025,0.924-0.078s0.504-0.148,0.725-0.289
			c0.273-0.176,0.48-0.406,0.617-0.693C278.08,357.828,278.146,357.471,278.146,357.041z"/>
		<path fill="#333B3F" d="M283.734,359.807H280.1v-5.518h3.635v0.65h-2.9v1.512h2.9v0.652h-2.9v2.049h2.9V359.807z"/>
		<path fill="#333B3F" d="M289.25,354.289l-2.01,5.518h-0.979l-2.008-5.518h0.787l1.729,4.854l1.73-4.854H289.25z"/>
		<path fill="#333B3F" d="M293.721,359.807h-3.635v-5.518h3.635v0.65h-2.9v1.512h2.9v0.652h-2.9v2.049h2.9V359.807z"/>
		<path fill="#333B3F" d="M298.375,359.807h-3.492v-5.518h0.732v4.863h2.756v0.652h0.004V359.807z"/>
		<path fill="#333B3F" d="M303.146,354.922c0.225,0.246,0.396,0.551,0.516,0.906c0.121,0.359,0.182,0.766,0.182,1.221
			c0,0.453-0.062,0.859-0.186,1.221c-0.121,0.359-0.293,0.66-0.512,0.898c-0.229,0.25-0.496,0.438-0.807,0.562
			s-0.664,0.188-1.062,0.188c-0.387,0-0.74-0.062-1.057-0.191c-0.318-0.127-0.588-0.314-0.811-0.561
			c-0.225-0.244-0.395-0.545-0.516-0.898c-0.117-0.357-0.18-0.764-0.18-1.221c0-0.449,0.061-0.854,0.178-1.209
			c0.119-0.357,0.293-0.664,0.52-0.918c0.219-0.24,0.488-0.428,0.812-0.557c0.322-0.129,0.674-0.191,1.053-0.191
			c0.396,0,0.752,0.064,1.066,0.193C302.658,354.498,302.926,354.684,303.146,354.922z M303.078,357.049
			c0-0.717-0.158-1.27-0.479-1.658c-0.322-0.389-0.76-0.582-1.316-0.582c-0.561,0-1,0.193-1.32,0.582s-0.48,0.941-0.48,1.658
			c0,0.725,0.164,1.277,0.49,1.662c0.326,0.383,0.762,0.574,1.312,0.574c0.549,0,0.984-0.191,1.311-0.574
			C302.916,358.326,303.078,357.771,303.078,357.049z"/>
		<path fill="#333B3F" d="M308.615,355.955c0,0.244-0.043,0.471-0.129,0.68s-0.205,0.391-0.355,0.543
			c-0.189,0.189-0.414,0.334-0.676,0.43c-0.26,0.094-0.588,0.143-0.98,0.143h-0.732v2.059h-0.732v-5.518h1.496
			c0.332,0,0.611,0.025,0.842,0.082c0.229,0.057,0.434,0.145,0.611,0.262c0.209,0.141,0.371,0.314,0.486,0.525
			C308.557,355.369,308.615,355.635,308.615,355.955z M307.852,355.975c0-0.191-0.033-0.355-0.102-0.498
			c-0.066-0.141-0.168-0.254-0.303-0.344c-0.119-0.076-0.254-0.133-0.406-0.166c-0.152-0.031-0.344-0.049-0.576-0.049h-0.727v2.205
			h0.617c0.299,0,0.537-0.025,0.725-0.08c0.186-0.055,0.336-0.139,0.453-0.254c0.113-0.119,0.195-0.244,0.246-0.375
			C307.826,356.283,307.852,356.137,307.852,355.975z"/>
		<path fill="#333B3F" d="M314.494,359.807h-0.73v-4.756l-1.535,3.234h-0.438l-1.521-3.234v4.756h-0.686v-5.518h1l1.471,3.07
			l1.424-3.07h1.018v5.518H314.494z"/>
		<path fill="#333B3F" d="M319.611,359.807h-3.635v-5.518h3.635v0.65h-2.898v1.512h2.898v0.652h-2.898v2.049h2.898V359.807z"/>
		<path fill="#333B3F" d="M324.984,359.807h-0.906l-2.615-4.938v4.938h-0.688v-5.518h1.141l2.385,4.504v-4.504h0.688v5.518H324.984z
			"/>
		<path fill="#333B3F" d="M330.387,354.939h-1.971v4.865h-0.732v-4.865h-1.973v-0.652h4.676V354.939z"/>
		<path fill="#333B3F" d="M335.1,360.258h-0.645v-7.219h0.645V360.258z"/>
		<path fill="#333B3F" d="M344.824,359.807h-0.732v-4.756l-1.533,3.234h-0.439l-1.521-3.234v4.756h-0.688v-5.518h1l1.475,3.07
			l1.422-3.07h1.02v5.518H344.824z"/>
		<path fill="#333B3F" d="M349.941,359.807h-3.635v-5.518h3.635v0.65h-2.9v1.512h2.9v0.652h-2.9v2.049h2.9V359.807z"/>
		<path fill="#333B3F" d="M355.766,357.053c0,0.5-0.109,0.955-0.328,1.363c-0.219,0.406-0.508,0.725-0.871,0.947
			c-0.252,0.156-0.533,0.27-0.844,0.338s-0.719,0.104-1.225,0.104h-1.395v-5.518h1.377c0.539,0,0.969,0.039,1.285,0.117
			s0.586,0.186,0.807,0.32c0.377,0.234,0.67,0.547,0.879,0.938C355.662,356.053,355.766,356.518,355.766,357.053z M355,357.041
			c0-0.434-0.076-0.799-0.229-1.094c-0.15-0.297-0.375-0.529-0.674-0.699c-0.219-0.125-0.447-0.211-0.691-0.258
			c-0.244-0.049-0.537-0.072-0.879-0.072h-0.689v4.258h0.689c0.354,0,0.66-0.025,0.926-0.078c0.262-0.053,0.504-0.148,0.723-0.289
			c0.275-0.176,0.48-0.406,0.617-0.693S355,357.471,355,357.041z"/>
		<path fill="#333B3F" d="M358.896,359.807h-2.178v-0.564h0.723v-4.391h-0.723v-0.562h2.178v0.562h-0.723v4.391h0.723V359.807z"/>
		<path fill="#333B3F" d="M364.496,359.807h-0.779l-0.541-1.539h-2.389l-0.539,1.539h-0.744l2.008-5.518h0.979L364.496,359.807z
			 M362.947,357.639l-0.967-2.711l-0.971,2.711H362.947z"/>
		<path fill="#333B3F" d="M371.936,354.939h-1.971v4.865h-0.732v-4.865h-1.973v-0.652h4.676V354.939z"/>
		<path fill="#333B3F" d="M376.312,359.807h-3.635v-5.518h3.635v0.65h-2.902v1.512h2.902v0.652h-2.902v2.049h2.902V359.807z"/>
		<path fill="#333B3F" d="M381.736,359.404c-0.135,0.061-0.258,0.115-0.367,0.166c-0.109,0.053-0.254,0.105-0.432,0.164
			c-0.152,0.047-0.312,0.086-0.492,0.119c-0.176,0.033-0.371,0.051-0.584,0.051c-0.396,0-0.764-0.057-1.09-0.168
			c-0.328-0.113-0.613-0.289-0.854-0.527c-0.236-0.234-0.424-0.533-0.557-0.896s-0.201-0.783-0.201-1.262
			c0-0.455,0.064-0.861,0.193-1.219s0.314-0.662,0.557-0.908c0.234-0.24,0.52-0.422,0.852-0.549
			c0.332-0.125,0.701-0.188,1.104-0.188c0.297,0,0.596,0.035,0.891,0.105s0.623,0.197,0.98,0.379v0.871h-0.055
			c-0.305-0.256-0.605-0.439-0.904-0.557c-0.299-0.119-0.619-0.174-0.959-0.174c-0.277,0-0.531,0.045-0.754,0.135
			c-0.225,0.09-0.424,0.229-0.6,0.42c-0.17,0.186-0.303,0.418-0.398,0.701c-0.094,0.283-0.143,0.609-0.143,0.98
			c0,0.389,0.053,0.721,0.158,1c0.104,0.277,0.24,0.506,0.406,0.682c0.172,0.184,0.375,0.318,0.604,0.406
			c0.23,0.088,0.477,0.131,0.73,0.131c0.354,0,0.686-0.061,0.994-0.182c0.307-0.121,0.598-0.303,0.867-0.545h0.051v0.861h0.002
			V359.404z"/>
		<path fill="#333B3F" d="M386.996,359.807h-0.732v-2.701h-2.754v2.701h-0.732v-5.518h0.732v2.162h2.754v-2.162h0.732V359.807z"/>
		<path fill="#333B3F" d="M392.686,359.807h-0.906l-2.617-4.938v4.938h-0.686v-5.518h1.139l2.387,4.504v-4.504h0.686v5.518H392.686z
			"/>
		<path fill="#333B3F" d="M398.268,354.922c0.225,0.246,0.396,0.551,0.516,0.906c0.121,0.359,0.182,0.766,0.182,1.221
			c0,0.453-0.062,0.859-0.186,1.221c-0.121,0.359-0.293,0.66-0.512,0.898c-0.229,0.25-0.496,0.438-0.807,0.562
			s-0.664,0.188-1.062,0.188c-0.387,0-0.74-0.062-1.057-0.191c-0.318-0.127-0.588-0.314-0.811-0.561
			c-0.225-0.244-0.395-0.545-0.516-0.898c-0.119-0.357-0.18-0.764-0.18-1.221c0-0.449,0.061-0.854,0.178-1.209
			c0.119-0.357,0.293-0.664,0.52-0.918c0.219-0.24,0.486-0.428,0.812-0.557c0.322-0.129,0.674-0.191,1.053-0.191
			c0.396,0,0.752,0.064,1.066,0.193C397.779,354.498,398.047,354.684,398.268,354.922z M398.199,357.049
			c0-0.717-0.158-1.27-0.479-1.658c-0.322-0.389-0.76-0.582-1.314-0.582c-0.562,0-1,0.193-1.32,0.582s-0.48,0.941-0.48,1.658
			c0,0.725,0.164,1.277,0.49,1.662c0.326,0.383,0.762,0.574,1.311,0.574s0.986-0.191,1.312-0.574
			C398.037,358.326,398.199,357.771,398.199,357.049z"/>
		<path fill="#333B3F" d="M403.617,359.807h-3.488v-5.518h0.73v4.863h2.758V359.807z"/>
		<path fill="#333B3F" d="M408.396,354.922c0.225,0.246,0.396,0.551,0.516,0.906c0.121,0.359,0.182,0.766,0.182,1.221
			c0,0.453-0.062,0.859-0.186,1.221c-0.121,0.359-0.293,0.66-0.512,0.898c-0.229,0.25-0.496,0.438-0.807,0.562
			s-0.664,0.188-1.062,0.188c-0.387,0-0.74-0.062-1.057-0.191c-0.318-0.127-0.588-0.314-0.811-0.561
			c-0.225-0.244-0.395-0.545-0.516-0.898c-0.117-0.357-0.18-0.764-0.18-1.221c0-0.449,0.061-0.854,0.178-1.209
			c0.119-0.357,0.293-0.664,0.52-0.918c0.219-0.24,0.488-0.428,0.812-0.557c0.322-0.129,0.674-0.191,1.053-0.191
			c0.396,0,0.752,0.064,1.066,0.193C407.908,354.498,408.176,354.684,408.396,354.922z M408.328,357.049
			c0-0.717-0.158-1.27-0.479-1.658c-0.322-0.389-0.76-0.582-1.316-0.582c-0.561,0-1,0.193-1.32,0.582s-0.48,0.941-0.48,1.658
			c0,0.725,0.164,1.277,0.49,1.662c0.326,0.383,0.762,0.574,1.312,0.574c0.549,0,0.984-0.191,1.311-0.574
			C408.166,358.326,408.328,357.771,408.328,357.049z"/>
		<path fill="#333B3F" d="M414.857,359.398c-0.301,0.139-0.631,0.258-0.988,0.359c-0.354,0.104-0.699,0.154-1.033,0.154
			c-0.432,0-0.824-0.059-1.184-0.178c-0.357-0.119-0.664-0.297-0.916-0.535c-0.254-0.238-0.451-0.539-0.588-0.896
			c-0.139-0.359-0.209-0.779-0.209-1.262c0-0.883,0.258-1.578,0.773-2.09c0.516-0.51,1.223-0.764,2.121-0.764
			c0.312,0,0.635,0.037,0.961,0.111c0.328,0.076,0.682,0.203,1.059,0.385v0.871h-0.066c-0.074-0.061-0.188-0.137-0.334-0.232
			c-0.145-0.098-0.289-0.178-0.43-0.242c-0.17-0.074-0.363-0.139-0.58-0.188c-0.217-0.053-0.461-0.076-0.732-0.076
			c-0.619,0-1.107,0.197-1.469,0.594c-0.357,0.398-0.539,0.934-0.539,1.611c0,0.713,0.189,1.268,0.564,1.666
			c0.375,0.395,0.887,0.594,1.533,0.594c0.236,0,0.475-0.021,0.709-0.068c0.236-0.049,0.443-0.107,0.621-0.184v-1.352h-1.479v-0.646
			h2.203v2.365h0.002V359.398z"/>
		<path fill="#333B3F" d="M420.045,354.289l-1.941,3.098v2.42h-0.734v-2.344l-1.947-3.174h0.811l1.508,2.467l1.521-2.467H420.045z"
			/>
	</g>
</g>
</svg>
