<?xml version="1.0" encoding="utf-8"?>
<!-- Generator: Adobe Illustrator 15.1.0, SVG Export Plug-In . SVG Version: 6.00 Build 0)  -->
<!DOCTYPE svg PUBLIC "-//W3C//DTD SVG 1.1//EN" "http://www.w3.org/Graphics/SVG/1.1/DTD/svg11.dtd">
<svg version="1.1" id="Ebene_1" xmlns="http://www.w3.org/2000/svg" xmlns:xlink="http://www.w3.org/1999/xlink" x="0px" y="0px"
	 width="613.158px" height="60.526px" viewBox="0 0 613.158 60.526" style="enable-background:new 0 0 613.158 60.526;"
	 xml:space="preserve">
<path style="fill:#1D1D1B;" d="M43.413,51.579c3.757-3.263,5.635-7.956,5.635-14.082V5.872H36.102v30.926
	c0,3.574-0.744,6.17-2.231,7.79c-1.486,1.62-3.84,2.431-7.059,2.431c-3.265,0-5.623-0.844-7.076-2.53
	c-1.454-1.687-2.18-4.25-2.18-7.69V5.872H4.609v31.659c0,6.103,1.872,10.785,5.617,14.048c3.745,3.262,9.274,4.893,16.585,4.893
	S39.656,54.841,43.413,51.579 M205.036,40.061c0,1.198-0.251,2.259-0.753,3.179c-0.502,0.922-1.423,1.66-2.761,2.214
	c-1.317,0.555-2.756,0.844-4.318,0.866c-1.562,0.021-4.15,0.033-7.765,0.033h-0.937V34.002h2.812c1.918,0,3.759,0.011,5.522,0.033
	s3.147,0.178,4.15,0.466c1.473,0.422,2.516,1.061,3.13,1.914C204.729,37.271,205.036,38.485,205.036,40.061 M201.917,19.887
	c0,1.065-0.179,2.003-0.536,2.813c-0.358,0.811-1.119,1.47-2.281,1.981c-0.828,0.378-1.957,0.599-3.387,0.666
	c-1.431,0.066-3.164,0.099-5.199,0.099h-2.012V14.96h1.207c2.526,0,4.489,0.016,5.886,0.05c1.397,0.033,2.566,0.228,3.505,0.582
	c1.05,0.4,1.783,1.011,2.197,1.831C201.709,18.245,201.917,19.066,201.917,19.887 M216.958,46.686
	c0.973-1.887,1.459-4.028,1.459-6.426c0-3.307-0.956-5.97-2.868-7.989c-1.911-2.019-4.499-3.351-7.764-3.994v-0.267
	c2.326-1.02,4.125-2.446,5.4-4.277c1.274-1.831,1.911-3.945,1.911-6.342c0-2.064-0.463-3.9-1.391-5.509
	c-0.928-1.609-2.342-2.891-4.243-3.845c-1.833-0.91-3.684-1.498-5.55-1.765c-1.867-0.266-4.813-0.399-8.837-0.399h-19.386v49.569
	h21.8c3.622,0,6.612-0.312,8.972-0.934c2.358-0.621,4.521-1.664,6.489-3.129C214.649,50.136,215.986,48.572,216.958,46.686
	 M370.58,21.052c0,1.398-0.207,2.514-0.619,3.346c-0.414,0.832-1.068,1.593-1.963,2.28c-0.938,0.711-2.102,1.165-3.487,1.365
	c-1.388,0.2-3.108,0.3-5.165,0.3h-3.957V14.994h4.661c1.543,0,2.896,0.039,4.058,0.116c1.163,0.078,2.18,0.295,3.053,0.649
	c1.251,0.511,2.136,1.21,2.649,2.097C370.323,18.744,370.58,19.81,370.58,21.052 M390.67,55.441l-16.668-21.24
	c3.175-1.531,5.617-3.45,7.327-5.759c1.712-2.308,2.566-5.293,2.566-8.954c0-2.663-0.553-4.877-1.661-6.642
	c-1.105-1.764-2.599-3.201-4.477-4.311c-1.856-1.109-3.847-1.831-5.97-2.164c-2.125-0.332-4.661-0.499-7.613-0.499h-21.599v49.569
	h12.813V37.264h5.966l13.586,18.178H390.67z M458.399,40.061c0,1.198-0.251,2.259-0.753,3.179c-0.502,0.922-1.423,1.66-2.761,2.214
	c-1.317,0.555-2.756,0.844-4.318,0.866c-1.562,0.021-4.149,0.033-7.765,0.033h-0.938V34.002h2.812c1.919,0,3.76,0.011,5.522,0.033
	c1.764,0.022,3.146,0.178,4.15,0.466c1.473,0.422,2.515,1.061,3.129,1.914C458.093,37.271,458.399,38.485,458.399,40.061
	 M455.28,19.887c0,1.065-0.179,2.003-0.537,2.813c-0.357,0.811-1.118,1.47-2.279,1.981c-0.828,0.378-1.957,0.599-3.388,0.666
	c-1.432,0.066-3.165,0.099-5.198,0.099h-2.013V14.96h1.207c2.527,0,4.488,0.016,5.887,0.05c1.396,0.033,2.564,0.228,3.505,0.582
	c1.051,0.4,1.782,1.011,2.196,1.831C455.073,18.245,455.28,19.066,455.28,19.887 M470.322,46.686
	c0.973-1.887,1.459-4.028,1.459-6.426c0-3.307-0.956-5.97-2.868-7.989c-1.911-2.019-4.5-3.351-7.764-3.994v-0.267
	c2.325-1.02,4.125-2.446,5.4-4.277c1.273-1.831,1.911-3.945,1.911-6.342c0-2.064-0.465-3.9-1.393-5.509
	c-0.928-1.609-2.342-2.891-4.242-3.845c-1.834-0.91-3.684-1.498-5.551-1.765c-1.867-0.266-4.812-0.399-8.837-0.399h-19.385v49.569
	h21.8c3.622,0,6.612-0.312,8.971-0.934c2.359-0.621,4.522-1.664,6.49-3.129C468.014,50.136,469.35,48.572,470.322,46.686
	 M611.385,15.459V5.872h-44.069v9.587h15.596v39.982h12.878V15.459H611.385z"/>
<rect x="514.454" y="35.45" style="fill:#1D1D1B;" width="12.106" height="19.989"/>
<rect x="514.454" y="5.872" style="fill:#1D1D1B;" width="12.106" height="19.991"/>
<polygon style="fill:#1D1D1B;" points="261.651,55.44 297.772,55.44 297.772,45.854 274.463,45.854 274.463,35.45 296.094,35.45 
	296.094,25.863 274.463,25.863 274.463,15.459 297.772,15.459 297.772,5.872 261.651,5.872 "/>
<polygon style="fill:#1D1D1B;" points="94.764,55.44 130.885,55.44 130.885,45.854 107.576,45.854 107.576,35.45 129.207,35.45 
	129.207,25.863 107.576,25.863 107.576,15.459 130.885,15.459 130.885,5.872 94.764,5.872 "/>
</svg>
